# xmcd CD database generated by RipIT
#
# Track frame offsets:
# 150
# 12910
# 26556
# 54555
# 68110
# 78128
# 93976
# 104142
# 116030
# 128556
# 139739
# 151913
# 164106
# 174526
# 184742
# 197197
# 210809
# 220449
# 232775
# 244116
# 258680
# 271946
# 283476
# 297001
# 309507
#
# Disc length: 4305 seconds
#
# Revision: 0
# Processed by: cddbd v1.5.2PL0 Copyright (c) Steve Scherf et al.
# Submitted via: RipIT 3.9.0 www.suwald.com/ripit/ripit.html on 2014-07-07 at 18:47
#
DISCID=6f10cf19
DTITLE=B. B. King - The Kent Years
DYEAR=2013
DGENRE=Blues
TTITLE0=Everyday_I_Have_The_Blues
TTITLE1=Three_O'Clock_Blues
TTITLE2=Sweet_Sixteen,_Pt._1_&_2
TTITLE3=Sweet_Little_Angel
TTITLE4=Bad_Luck_Soul
TTITLE5=Your_Letter
TTITLE6=Peace_Of_Mind
TTITLE7=You_Know_I_Go_For_You
TTITLE8=Who_Do_Everything_Happen_To_Me
TTITLE9=Days_Of_Old
TTITLE10=Don't_Look_Now,_But_You_Got_The_Blues
TTITLE11=Worry,_Worry,_Worry
TTITLE12=I_Am
TTITLE13=Come_By_Here
TTITLE14=A_Lonely_Lover's_Plea
TTITLE15=The_Woman_I_Love
TTITLE16=Tome_To_Say_Goodbye
TTITLE17=Sugar_Mama
TTITLE18=Mean_Old_Frisco
TTITLE19=I've_Got_A_Right_To_Love_My_Baby
TTITLE20=Blind_Love
TTITLE21=Did_You_Ever_Love_A_Woman
TTITLE22=Partin'_Time
TTITLE23=Good_Man_Gone_Bad
TTITLE24=Crying_Won't_Help_You
EXTD=
EXTT0=
EXTT1=
EXTT2=
EXTT3=
EXTT4=
EXTT5=
EXTT6=
EXTT7=
EXTT8=
EXTT9=
EXTT10=
EXTT11=
EXTT12=
EXTT13=
EXTT14=
EXTT15=
EXTT16=
EXTT17=
EXTT18=
EXTT19=
EXTT20=
EXTT21=
EXTT22=
EXTT23=
EXTT24=
PLAYORDER=
